<?xml version="1.0" encoding="utf-8"?>
<!-- Generator: Adobe Illustrator 26.0.3, SVG Export Plug-In . SVG Version: 6.00 Build 0)  -->
<svg version="1.1" id="Слой_1" xmlns="http://www.w3.org/2000/svg" xmlns:xlink="http://www.w3.org/1999/xlink" x="0px" y="0px"
	 viewBox="0 0 2635.3 1826.3" style="enable-background:new 0 0 2635.3 1826.3;" xml:space="preserve">
<style type="text/css">
	.st0{fill:#215B7A;}
	.st1{fill:#ED2E33;}
	.st2{fill:#48C4ED;}
</style>
<g>
	<g>
		<path class="st0" d="M2075.7,875.4c38.7-17.7,65.7-56.8,65.7-102v-1.9c-0.2-40.5-22-76-54.4-95.6c22.2-18.5,39.8-42.1,51.4-69.5
			c19.1-45.2,19.5-95.1,1-140.6C2111.2,396,2044.4,351,1969.2,351c-8.9,0-17.7,0.6-26.4,1.9c4.9-12.7,7.4-26.4,7.4-40.4
			c-0.1-28.3-10.6-55-29.7-75.6c-1.1-1.2-2.1-2.3-3.3-3.5c-21.2-21.1-49.3-32.7-79.2-32.7c-10.1,0-20,1.4-29.4,3.9
			c4.6-75.5-38.1-149.2-111.6-180.4c-22.9-9.7-47-14.6-71.7-14.6c-57.1,0-109.6,26.2-143.9,69.5c-17.2-40-56.8-67.7-103-67.7
			c-1.5,0-3,0-4.8,0.1c-29.8,1.3-57.4,14.1-77.7,36c-5.3,5.8-10,12-13.9,18.6C1247.7,24.9,1196.5,0,1140.6,0
			c-23.6,0-46.8,4.5-68.8,13.4c-45.5,18.4-81.1,53.4-100.3,98.6c-13,30.7-17.4,63.6-13.1,95.8c-12.9-5.1-26.8-7.7-41.1-7.7
			c-30.1,0-58.3,11.7-79.5,33.1c-21.1,21.2-32.7,49.3-32.6,79.2c0,10.5,1.5,20.7,4.3,30.6c-4.3-0.3-8.6-0.5-12.9-0.5
			c-73.9,0-140.3,43.9-169.2,112c-33.5,79-7.2,168.6,58.2,218.2c-38.1,17.9-64.6,56.8-64.6,101.9c0.2,40.2,21.7,75.5,53.7,95.2
			c-59.4,49.8-83.1,134.1-52.5,209.7c28.1,69.7,94.9,114.9,170.3,115c0,0,0.1,0,0.1,0c7.5,0,14.9-0.5,22.3-1.4
			c-16.6,40.6-8.5,89,24.4,121.9c0.1,0.1,0.2,0.2,0.3,0.3c21.2,21,49.2,32.5,79,32.5c29.9,0,58.1-11.7,79.4-33
			c19.1-19.2,29.8-43.8,32.1-69c-0.8,8.9,36.2,30.3,43.4,34.4c14.3,8.2,29.9,14.6,46,18.6c33.5,8.2,73.9,7.4,104.8-9.4
			c26.4-14.4,46.7-41,50.5-70.9c3.9-29.9-10-62.1-36-77.3c-13.9-8.1-30.1-11.3-44.8-17.8c-14.7-6.5-28.9-18.3-30.9-34.2
			c-2.3-18.8,12.8-34.8,26.1-48.3s26.9-31.7,21-49.7c-6.6-20.4-32.2-25.4-51.8-34.2c-15.1-6.7-29-18.3-34.2-34
			c-5.2-15.7,0.7-35.6,15.7-42.6c15.9-7.5,38.1,0,50.1-12.8c11.4-12.1,3.6-32.9-9.4-43.3c-13-10.4-29.8-15.1-42.7-25.6
			s-20.6-31.4-9-43.3c11.1-11.4,30.4-6,43.8,2.5c13.4,8.5,27,20,42.8,18.6c19.7-1.7,32.2-23.2,33.1-42.9s-6.2-38.9-8.9-58.4
			c-5.7-41.1,9.2-84.5,38.9-113.5c33.6-32.8,78.6-38.7,123.3-40.6c49.1-2.1,99.6,28.6,147.7,5.6c-41.6,147.7,62.1,131.5,61.4,225.9
			c-1.6,214.3-50.5,293.1-113.1,362.8c-52.8,58.7-49.8,118.5-44.4,169.8c73,46.3,220.8,38.9,274.2-40.9
			c2.4,24.9,13.2,49.2,32.2,68.2c0.1,0.1,0.2,0.2,0.3,0.3c21.2,21,49.2,32.5,79,32.5c29.8,0,57.9-11.6,79-32.5
			c0.1-0.1,0.3-0.3,0.4-0.4c21.1-21.2,32.7-49.3,32.7-79.2c0-10.1-1.4-19.9-3.9-29.4c5,0.4,10.1,0.7,15.2,0.7
			c76,0,145.1-47.7,172-118.9C2163.5,1008,2137.2,923.6,2075.7,875.4z"/>
		<path class="st1" d="M1289.5,986.4c94.1-57.8,158.4-9,188.8-12.5C1451.9,1053.2,1340.3,1061.6,1289.5,986.4z"/>
		<path class="st2" d="M1091.9,1061.8c24.2,24.1,24.2,63.3,0.1,87.4c-12.1,12.1-27.9,18.2-43.7,18.2c-0.1,0-0.2,0-0.3,0
			c-22.5-0.1-44.2,8-60.1,24l-18.7,18.9c-9.5,9.5-15.6,21.6-19.4,34.5c-1.5,5.1-4.2,9.9-8.2,13.9c-6.3,6.3-14.6,9.5-23,9.5
			c-8.3,0-16.7-3.2-23-9.5c-12.7-12.7-12.7-33.3,0-46c4-4,8.7-6.7,13.7-8.2c12.7-3.8,24.6-10,34-19.4l19.5-19.7
			c15.4-15.5,24.1-36.6,23.6-58.5c-0.3-16.2,5.7-32.5,18.1-44.9C1028.6,1037.7,1067.8,1037.7,1091.9,1061.8z M1665.4,486.2
			c11.3,12.7,27.8,18,43.6,18c15.9,0,31.8-6.1,43.8-18.2c13.3-13.4,19.2-31.4,17.7-48.9c-1.3-15.6,3.8-31.1,15.2-41.9l3.8-3.6
			c23-21.8,60.3-16.9,76.8,10.1l0.1,0.2c17.3,28.2,18.9,62.8,6.3,93.4c-10,24.3-10.8,52.4-0.2,78.6c16.4,40.5,55.4,65,96.5,65
			c13.1,0,26.3-2.5,39.1-7.7c53.3-21.6,79-82.3,57.3-135.6c-14.5-35.7-46.5-59-82-64c-39.2-5.5-73.9-28.4-94.6-62.2l0,0
			c-11-18-16.8-38.5-18.7-59.5c-0.7-7.3-3.8-14.5-9.5-20.1c0.1,0,0.1,0,0.1,0c-12.8-12.7-33.4-12.7-46.1,0.1c-4,4-6.7,8.9-8.2,14
			c-5.2,18.1-14.1,35-27.8,48l-24,22.8c-8.1,7.7-19.7,10.7-30.5,7.9l0,0c-10.8-2.8-19.5-10.8-23.1-21.4l-1.2-3.5
			c-12.4-36.5-7-76.4,13.4-109.2c2.8-4.6,5.4-9.4,7.5-14.5c22.5-53-2.3-114.1-55.2-136.6c-53-22.5-114.1,2.3-136.6,55.3
			c-22.5,53,2.3,114.1,55.3,136.6c2.4,1,5.7,1.9,9.4,2.7c30.4,6.5,55.3,28.5,65.3,58v0c7.4,21.7,6.4,45.6-3.8,66.1
			C1646.6,434.2,1642.1,460.1,1665.4,486.2z M1396.5,194.5l0-6.8c0-17.3,3.5-34.4,11.1-49.9c2.3-4.7,3.5-9.9,3.2-15.5
			c-0.7-18-15.9-32-33.8-31.2c-18,0.8-32,15.9-31.2,33.8c0.2,4.5,1.3,8.8,3.1,12.6c8.2,17.4,11.4,36.7,11.5,55.9l0.1,35.6
			c0,10-5.2,19.4-13.8,24.6l-0.3,0.2c-8.6,5.3-19.4,5.7-28.4,1l-8.2-4.2c-34.5-17.8-59.2-50.1-67.1-88c-1.3-6-3-11.9-5.4-17.8
			c-21.6-53.3-82.3-79.1-135.6-57.5c-53.3,21.5-79.1,82.3-57.5,135.6c16.4,40.6,55.5,64.7,96.7,65.2c21.2,0.2,37.5-4.7,50-11.6
			c27-14.7,59.4-15.8,86.7-1.7l0,0c20.7,10.7,37.1,28.8,44.3,51c6.2,19,21.2,40.3,56.8,42.7c0.8,0.1,1.7,0,2.5-0.1
			c34.1-1.4,60.7-30.1,59.3-64.3c-0.6-14.8-6.4-28.2-15.6-38.5C1407.3,245.7,1396.6,220.9,1396.5,194.5z M1816.1,1209.7
			c-12.7,12.7-12.7,33.3,0,46c6.4,6.3,14.7,9.5,23,9.5c8.3,0,16.7-3.2,23-9.5c12.7-12.8,12.7-33.3-0.1-46
			C1849.4,1197,1828.8,1197,1816.1,1209.7z M765.7,774.1c0-18-14.6-32.5-32.5-32.5c-18,0-32.5,14.6-32.5,32.6
			c0.1,18,14.6,32.5,32.6,32.5C751.2,806.6,765.7,792,765.7,774.1z M1996.8,771.9c0,0.3,0,0.7,0,1v0.2c0,14,8.8,27,22.2,31.2
			c22.4,7,42.9-9.6,42.9-30.9c0-0.3,0-0.5,0-0.8c0-0.3,0-0.6,0-0.8c-0.1-18-14.7-32.5-32.7-32.5
			C2011.2,739.2,1996.7,753.9,1996.8,771.9z M917.4,344.7c8.3,0,16.7-3.2,23-9.6c12.7-12.7,12.6-33.3-0.1-46
			c-12.8-12.6-33.4-12.6-46,0.1c-12.7,12.7-12.7,33.3,0.1,46C900.8,341.6,909.1,344.7,917.4,344.7z M1999.4,922.7
			c-7.5-2.8-15.2-4.7-22.8-5.8c-28.7-3.9-53.1-22.9-65.4-49.1l-1.9-4.1c-10.6-22.6-11.2-48.1-3.7-71.9c1.8-5.8,2.8-12.1,2.8-18.5
			c0-0.1,0-0.3,0-0.5c0-0.3,0-0.5,0-0.7c-0.1-38.3-35-68.4-74.6-60.4c-28.9,5.8-49.1,32-49.1,61.4v0.2c-0.9,33.3,18.4,48.6,37,55.6
			c23.7,8.8,43.4,25.9,54.1,48.8l2.6,5.5c12.5,26.7,10.3,57.8-4.9,83.1c-3.2,5.3-6,11-8.3,17.1c-1.1,2.8-2,5.7-2.8,8.6
			c-8,28.5-29,51.7-57.1,60.9l-5.4,1.8c-21.4,7-44.6,4.9-64.9-5c-15.3-7.4-35.7-11.8-56,0.1c-34,20.1-41.9,63.6-16.3,93.7
			c12.4,14.5,29.8,21.8,47.1,21.8c15.8,0,31.7-6.1,43.7-18.1c0-0.1,0-0.1,0-0.1c4.7-4.7,8.4-9.9,11.3-15.5
			c10.6-20.8,28.7-36.9,50.9-44.2l0.8-0.3c27.5-9,58.1-4.3,80.6,13.9c8.4,6.8,18.1,12.4,28.8,16.5c12.1,4.6,24.5,6.8,36.7,6.8
			c42.1,0,81.8-25.7,97.5-67.4C2080.3,1003.1,2053.1,943,1999.4,922.7z M889.1,971.6L889.1,971.6c-1.9-4.5-4-8.8-6.3-12.9
			c-14.5-25.2-14.2-56.2-1-82l0.1-0.2c10.9-21.1,30.1-36.4,52.7-43.6c13.9-4.4,29.2-14.9,39-38.7c10.7-26.1-0.4-52.8-18.9-67.6
			c-5.5-4.4-11.1-7.5-16.4-9.6c-23.2-9.3-42.6-26.1-53.4-48.7l-0.7-1.5c-13.7-28.6-12.3-62,3.2-89.6c1.9-3.3,3.5-6.7,5.1-10.3
			c2-4.6,3.5-9.3,4.8-13.9c7.4-27.9,27.5-50.7,54.9-59.9l4.4-1.5c21.8-7.3,45.5-4.9,66,5.6c7.5,3.8,16,6.7,24.8,6.7
			c15.9,0.1,31.8-6.1,43.8-18.2c24.1-24.2,24-63.3-0.1-87.4c-24.2-24.1-63.4-24-87.5,0.1c-5.1,5.1-9.1,10.9-12,17
			c-9.6,20.3-27.4,35.5-48.7,42.7l-2.3,0.8c-27,9.1-56.8,3.9-79-13.9c-7.2-5.8-15.4-10.7-24.4-14.5c-52.9-22.5-114.1,2.3-136.6,55.2
			c-22.5,53,2.9,112.6,55.2,136.6c8.7,4,17.1,6.3,24.8,7.5c30.7,4.9,57.2,24.4,70.6,52.4l0.6,1.2c10.8,22.6,11.6,48.3,4,72.1
			c-1.9,5.9-2.9,12.2-2.9,18.7c0,6.1,0.9,12,2.6,17.6c6.7,22.3,5.4,46.2-5.3,66.9l-1.1,2.1c-13.3,25.9-38.8,43.5-67.8,46.6
			c-9.5,1-19,3.3-28.2,7c-53.3,21.5-79,82.2-57.5,135.6c16.3,40.6,55.4,65.1,96.6,65.2c13,0,26.2-2.5,39-7.6
			C884.9,1085.6,910.6,1025,889.1,971.6z"/>
	</g>
	<g>
		<path d="M207.3,1524.1c25.1,13.3,44.5,32,58.3,56c13.8,24,20.6,51.8,20.6,83.2c0,31.2-6.9,58.8-20.6,83
			c-13.8,24.2-33.3,43-58.5,56.3c-25.3,13.3-54.5,20-87.8,20H0v-318.5h119.3C152.9,1504.1,182.2,1510.8,207.3,1524.1z M182.8,1731.4
			c16.3-16,24.5-38.7,24.5-68.1c0-29.3-8.2-52.2-24.5-68.5c-16.3-16.3-39.2-24.5-68.5-24.5H77.6v185.1h36.8
			C143.7,1755.5,166.5,1747.5,182.8,1731.4z"/>
		<path d="M329.1,1627.1c9.8-19.7,23.2-34.8,40.2-45.4c16.9-10.6,35.8-15.9,56.7-15.9c17.8,0,33.5,3.6,47,10.9
			c13.5,7.3,23.8,16.8,31.1,28.6v-35.8h77.6v253.2H504v-35.8c-7.6,11.8-18.1,21.3-31.5,28.6c-13.5,7.3-29.1,10.9-47,10.9
			c-20.6,0-39.3-5.4-56.3-16.1c-16.9-10.7-30.3-26-40.2-45.8c-9.8-19.8-14.7-42.7-14.7-68.7C314.4,1669.6,319.3,1646.8,329.1,1627.1
			z M487.9,1650.2c-10.7-11.2-23.8-16.8-39.2-16.8c-15.4,0-28.5,5.5-39.2,16.6c-10.7,11-16.1,26.2-16.1,45.6
			c0,19.4,5.4,34.7,16.1,46c10.7,11.3,23.8,17,39.2,17c15.4,0,28.5-5.6,39.2-16.8c10.7-11.2,16.1-26.5,16.1-45.8
			C504,1676.7,498.7,1661.4,487.9,1650.2z"/>
		<path d="M779,1756.8v65.8h-39.5c-28.1,0-50.1-6.9-65.8-20.6c-15.7-13.8-23.6-36.2-23.6-67.4v-100.7h-30.8v-64.4h30.8v-61.7h77.6
			v61.7h50.8v64.4h-50.8v101.6c0,7.6,1.8,13,5.4,16.3c3.6,3.3,9.7,5,18.1,5H779z"/>
		<path d="M821.4,1627.1c9.8-19.7,23.2-34.8,40.2-45.4c16.9-10.6,35.8-15.9,56.7-15.9c17.8,0,33.5,3.6,47,10.9
			c13.5,7.3,23.8,16.8,31.1,28.6v-35.8h77.6v253.2h-77.6v-35.8c-7.6,11.8-18.1,21.3-31.5,28.6c-13.5,7.3-29.1,10.9-47,10.9
			c-20.6,0-39.3-5.4-56.3-16.1c-16.9-10.7-30.3-26-40.2-45.8c-9.8-19.8-14.7-42.7-14.7-68.7C806.6,1669.6,811.6,1646.8,821.4,1627.1
			z M980.2,1650.2c-10.7-11.2-23.8-16.8-39.2-16.8c-15.4,0-28.5,5.5-39.2,16.6c-10.7,11-16.1,26.2-16.1,45.6
			c0,19.4,5.4,34.7,16.1,46c10.7,11.3,23.8,17,39.2,17c15.4,0,28.5-5.6,39.2-16.8c10.7-11.2,16.1-26.5,16.1-45.8
			C996.3,1676.7,990.9,1661.4,980.2,1650.2z"/>
		<path d="M1337.5,1504.1v62.2h-129.8v67.1h97.1v60.3h-97.1v128.8h-77.6v-318.5H1337.5z"/>
		<path d="M1455.9,1486.9v335.7h-77.6v-335.7H1455.9z"/>
		<path d="M1511.4,1627.1c9.8-19.7,23.2-34.8,40.2-45.4c16.9-10.6,35.8-15.9,56.7-15.9c17.8,0,33.5,3.6,47,10.9
			c13.5,7.3,23.8,16.8,31.1,28.6v-35.8h77.6v253.2h-77.6v-35.8c-7.6,11.8-18.1,21.3-31.5,28.6c-13.5,7.3-29.1,10.9-47,10.9
			c-20.6,0-39.3-5.4-56.3-16.1c-16.9-10.7-30.3-26-40.2-45.8c-9.8-19.8-14.7-42.7-14.7-68.7
			C1496.7,1669.6,1501.6,1646.8,1511.4,1627.1z M1670.2,1650.2c-10.7-11.2-23.8-16.8-39.2-16.8c-15.4,0-28.5,5.5-39.2,16.6
			c-10.7,11-16.1,26.2-16.1,45.6c0,19.4,5.4,34.7,16.1,46c10.7,11.3,23.8,17,39.2,17c15.4,0,28.5-5.6,39.2-16.8
			c10.7-11.2,16.1-26.5,16.1-45.8C1686.3,1676.7,1681,1661.4,1670.2,1650.2z"/>
		<path class="st2" d="M1825.9,1531.1c-8.6-8-12.9-17.9-12.9-29.7c0-12.1,4.3-22.2,12.9-30.2c8.6-8,19.7-12,33.3-12
			c13.3,0,24.3,4,32.9,12c8.6,8,12.9,18.1,12.9,30.2c0,11.8-4.3,21.7-12.9,29.7c-8.6,8-19.6,12-32.9,12
			C1845.6,1543.2,1834.5,1539.2,1825.9,1531.1z"/>
		<rect x="1820.2" y="1569.5" width="77.6" height="253.2"/>
		<rect x="2550.5" y="1569.5" width="77.6" height="253.2"/>
		<path d="M2065.6,1578.8c13.6-8,28.7-12,45.4-12v82.1h-21.3c-19.4,0-33.9,4.2-43.6,12.5c-9.7,8.3-14.5,22.9-14.5,43.8v117.5H1954
			v-253.2h77.6v42.2C2040.7,1597.8,2052,1586.8,2065.6,1578.8z"/>
		<path class="st2" d="M2103.1,1814.2c-8.6-8-12.9-17.9-12.9-29.7c0-12.1,4.3-22.2,12.9-30.4c8.6-8.2,19.7-12.2,33.3-12.2
			c13.3,0,24.3,4.1,32.9,12.2c8.6,8.2,12.9,18.3,12.9,30.4c0,11.8-4.3,21.7-12.9,29.7c-8.6,8-19.6,12-32.9,12
			C2122.9,1826.3,2111.7,1822.3,2103.1,1814.2z"/>
		<path d="M2426.4,1766.4h-118.9l-19.1,56.3h-81.2l115.2-318.5h89.8l115.2,318.5h-82.1L2426.4,1766.4z M2406.4,1706.5l-39.5-116.6
			l-39,116.6H2406.4z"/>
		<path class="st2" d="M2556.1,1531.4c-8.6-8-12.9-17.9-12.9-29.7c0-12.1,4.3-22.2,12.9-30.4c8.6-8.2,19.7-12.2,33.3-12.2
			c13.3,0,24.3,4.1,32.9,12.2c8.6,8.2,12.9,18.3,12.9,30.4c0,11.8-4.3,21.7-12.9,29.7c-8.6,8-19.6,12-32.9,12
			C2575.9,1543.4,2564.8,1539.4,2556.1,1531.4z"/>
	</g>
</g>
</svg>
